# Blender v2.74 (sub 0) OBJ File: 'keening.blend'
# www.blender.org
o Deco_Cube.003
v -0.200000 0.533333 0.110000
v -0.200000 0.666667 0.110000
v -0.200000 0.666667 -0.110000
v -0.200000 0.533333 -0.110000
v -0.066667 0.800000 -0.110000
v 0.066667 0.800000 -0.110000
v 0.200000 0.666667 -0.110000
v 0.200000 0.533333 -0.110000
v 0.066667 0.400000 -0.110000
v -0.066667 0.400000 -0.110000
v 0.200000 0.666667 0.110000
v 0.200000 0.533333 0.110000
v 0.066667 0.800000 0.110000
v -0.066667 0.800000 0.110000
v -0.066667 0.400000 0.110000
v 0.066667 0.400000 0.110000
v 0.066667 0.666667 0.110000
v 0.066667 0.533333 0.110000
v -0.066667 0.666667 0.110000
v -0.066667 0.533333 0.110000
v -0.066667 0.666667 -0.110000
v -0.066667 0.533333 -0.110000
v 0.066667 0.666667 -0.110000
v 0.066667 0.533333 -0.110000
vt 0.671875 0.828125
vt 0.671875 0.671875
vt 0.828125 0.671875
vt 0.171875 0.671875
vt 0.000000 0.671875
vt 0.171875 0.500000
vt 0.328125 0.500000
vt 0.328125 0.671875
vt 0.171875 0.828125
vt 0.171875 1.000000
vt 0.000000 0.828125
vt 0.328125 0.828125
vt 0.500000 0.671875
vt 0.500000 0.828125
vt 0.328125 1.000000
vt 1.000000 0.250000
vt 1.000000 0.500000
vt 0.000000 0.500000
vt 0.000000 0.000000
vt 1.000000 0.000000
vt 0.000000 0.250000
vt 0.671875 0.500000
vt 0.671875 1.000000
vt 0.828125 0.828125
vt 1.000000 0.828125
vt 0.828125 1.000000
vt 1.000000 0.671875
vt 0.828125 0.500000
vn 0.000000 0.000000 1.000000
vn 0.000000 0.000000 -1.000000
vn -1.000000 0.000000 0.000000
vn -0.707100 -0.707100 0.000000
vn -0.707100 0.707100 0.000000
vn 0.707100 0.707100 0.000000
vn 1.000000 0.000000 0.000000
vn 0.707100 -0.707100 0.000000
vn 0.000000 1.000000 0.000000
vn 0.000000 -1.000000 0.000000
s off
f 19/1/1 20/2/1 18/3/1
f 24/4/2 8/5/2 9/6/2
f 10/7/2 22/8/2 24/4/2
f 23/9/2 24/4/2 22/8/2
f 8/5/2 24/4/2 23/9/2
f 6/10/2 7/11/2 23/9/2
f 6/10/2 23/9/2 21/12/2
f 4/13/2 22/8/2 10/7/2
f 3/14/2 21/12/2 22/8/2
f 21/12/2 3/14/2 5/15/2
f 3/16/3 4/17/3 1/18/3
f 10/19/4 15/20/4 1/16/4
f 2/19/5 14/21/5 5/16/5
f 6/21/6 13/16/6 11/20/6
f 7/18/7 11/17/7 12/16/7
f 12/21/8 16/19/8 9/20/8
f 14/21/9 13/18/9 6/17/9
f 20/2/1 1/13/1 15/22/1
f 18/3/1 20/2/1 15/22/1
f 20/2/1 19/1/1 2/14/1
f 2/14/1 19/1/1 14/23/1
f 17/24/1 11/25/1 13/26/1
f 14/23/1 19/1/1 17/24/1
f 11/25/1 17/24/1 18/3/1
f 12/27/1 18/3/1 16/28/1
f 16/16/10 15/17/10 10/18/10
f 17/24/1 19/1/1 18/3/1
f 9/6/2 10/7/2 24/4/2
f 21/12/2 23/9/2 22/8/2
f 7/11/2 8/5/2 23/9/2
f 5/15/2 6/10/2 21/12/2
f 4/13/2 3/14/2 22/8/2
f 2/21/3 3/16/3 1/18/3
f 4/21/4 10/19/4 1/16/4
f 3/20/5 2/19/5 5/16/5
f 7/19/6 6/21/6 11/20/6
f 8/21/7 7/18/7 12/16/7
f 8/16/8 12/21/8 9/20/8
f 5/16/9 14/21/9 6/17/9
f 16/28/1 18/3/1 15/22/1
f 1/13/1 20/2/1 2/14/1
f 13/26/1 14/23/1 17/24/1
f 12/27/1 11/25/1 18/3/1
f 9/21/10 16/16/10 10/18/10
o Pommel_Cube.002
v -0.100000 -0.520000 0.100000
v -0.100000 -0.480000 0.100000
v -0.100000 -0.520000 -0.100000
v -0.100000 -0.480000 -0.100000
v 0.100000 -0.520000 0.100000
v 0.100000 -0.480000 0.100000
v 0.100000 -0.520000 -0.100000
v 0.100000 -0.480000 -0.100000
v -0.120000 -0.520000 -0.125000
v -0.120000 -0.520000 0.125000
v 0.125000 -0.520000 -0.125000
v 0.125000 -0.520000 0.125000
v -0.120000 -0.570000 -0.125000
v -0.120000 -0.570000 0.125000
v 0.125000 -0.570000 -0.125000
v 0.125000 -0.570000 0.125000
v 0.175000 -0.520000 0.125000
v 0.175000 -0.520000 -0.125000
v -0.170000 -0.520000 -0.125000
v -0.170000 -0.520000 0.125000
v 0.125000 -0.720000 0.125000
v 0.125000 -0.720000 -0.125000
v 0.175000 -0.720000 0.125000
v 0.175000 -0.720000 -0.125000
v -0.120000 -0.720000 -0.125000
v -0.120000 -0.720000 0.125000
v -0.170000 -0.720000 -0.125000
v -0.170000 -0.720000 0.125000
vt -0.000000 -0.000000
vt 0.250000 -0.000000
vt 0.250000 1.000000
vt 0.000000 1.000000
vt 0.031250 0.093750
vt 0.031250 0.906250
vt 0.000000 0.937500
vt 0.750000 0.250000
vt 0.750000 0.750000
vt 0.250000 0.750000
vt 1.000000 0.750000
vt 0.000000 0.062500
vt 0.250000 0.062500
vt 0.218750 0.093750
vt 0.250000 0.937500
vt 0.218750 0.906250
vt 0.250000 0.250000
vt 1.000000 1.000000
vt 0.500000 0.750000
vt 0.500000 0.250000
vt 1.000000 0.250000
vt 1.000000 -0.000000
vn -1.000000 0.000000 0.000000
vn 0.000000 0.000000 -1.000000
vn 1.000000 0.000000 0.000000
vn 0.000000 0.000000 1.000000
vn 0.000000 1.000000 -0.000000
vn 0.000000 -1.000000 0.000000
s off
f 28/29/11 27/30/11 25/31/11
f 32/31/12 31/32/12 27/29/12
f 30/29/13 29/30/13 31/31/13
f 26/31/14 25/32/14 29/29/14
f 29/33/15 25/34/15 34/35/15
f 32/36/15 28/37/15 26/38/15
f 34/39/14 38/37/14 40/36/14
f 29/33/15 36/40/15 35/41/15
f 31/42/15 35/41/15 33/43/15
f 27/44/15 33/43/15 34/35/15
f 37/45/16 39/36/16 40/37/16
f 40/36/14 45/45/14 47/30/14
f 35/39/12 39/37/12 37/36/12
f 44/46/14 52/31/14 38/37/14
f 42/46/12 48/31/12 39/37/12
f 51/36/11 52/37/11 44/47/11
f 36/40/15 41/29/15 42/30/15
f 37/36/12 49/45/12 51/30/12
f 33/43/15 43/31/15 44/32/15
f 46/31/16 48/32/16 47/29/16
f 39/45/11 46/48/11 45/47/11
f 50/31/16 52/32/16 51/29/16
f 38/45/13 50/48/13 49/47/13
f 47/36/13 48/37/13 42/47/13
f 26/32/11 28/29/11 25/31/11
f 28/30/12 32/31/12 27/29/12
f 32/32/13 30/29/13 31/31/13
f 30/30/14 26/31/14 29/29/14
f 36/40/15 29/33/15 34/35/15
f 30/45/15 32/36/15 26/38/15
f 36/49/14 34/39/14 40/36/14
f 31/42/15 29/33/15 35/41/15
f 27/44/15 31/42/15 33/43/15
f 25/34/15 27/44/15 34/35/15
f 38/38/16 37/45/16 40/37/16
f 41/50/14 36/49/14 40/36/14
f 40/36/14 47/30/14 41/50/14
f 33/49/12 35/39/12 37/36/12
f 38/37/14 34/39/14 44/46/14
f 52/31/14 50/38/14 38/37/14
f 39/37/12 35/39/12 42/46/12
f 48/31/12 46/38/12 39/37/12
f 43/48/11 51/36/11 44/47/11
f 35/41/15 36/40/15 42/30/15
f 43/50/12 33/49/12 37/36/12
f 37/36/12 51/30/12 43/50/12
f 34/35/15 33/43/15 44/32/15
f 45/30/16 46/31/16 47/29/16
f 40/38/11 39/45/11 45/47/11
f 49/30/16 50/31/16 51/29/16
f 37/38/13 38/45/13 49/47/13
f 41/48/13 47/36/13 42/47/13
o Blade_Cube
v -0.180000 0.597811 0.075000
v -0.180000 1.397811 0.075000
v -0.180000 0.597811 -0.075000
v -0.180000 1.397811 -0.075000
v 0.180000 0.597811 0.075000
v 0.180000 1.397811 0.075000
v 0.180000 0.597811 -0.075000
v 0.180000 1.397811 -0.075000
v -0.135000 1.897811 0.056250
v -0.135000 1.897811 -0.056250
v 0.135000 1.897811 -0.056250
v 0.135000 1.897811 0.056250
v 0.000000 2.097811 0.000000
vt 0.743590 0.414549
vt 0.743590 1.000000
vt 0.615385 1.000000
vt 0.307692 0.582894
vt 0.307692 0.000000
vt 0.615384 0.000000
vt 0.743590 0.585451
vt 0.743590 0.000000
vt 0.871795 0.000000
vt 0.307692 0.412575
vt 0.307692 0.995469
vt 0.000000 0.995469
vt 0.871795 0.210975
vt 1.000000 0.000000
vt 0.000000 0.412575
vt 0.038461 0.119991
vt 0.269231 0.119991
vt 0.871795 0.585451
vt 0.855769 0.879360
vt 0.759615 0.879360
vt 0.615385 0.582894
vt 0.576923 0.875479
vt 0.346154 0.875479
vt 0.615385 0.414549
vt 0.631410 0.120640
vt 0.727564 0.120640
vt 0.153846 0.000000
vt 0.807692 1.000000
vt 0.461538 0.995469
vt 0.679487 0.000000
vt 1.000000 0.210975
vn -1.000000 0.000000 0.000000
vn 0.000000 0.000000 -1.000000
vn 1.000000 0.000000 0.000000
vn 0.000000 0.000000 1.000000
vn 0.000000 -1.000000 0.000000
vn 0.000000 0.037500 0.999300
vn 0.996000 0.089600 0.000000
vn 0.000000 0.037500 -0.999300
vn -0.996000 0.089600 0.000000
vn 0.000000 0.270700 0.962700
vn 0.828800 0.559500 0.000000
vn 0.000000 0.270700 -0.962700
vn -0.828800 0.559500 0.000000
s off
f 56/51/17 55/52/17 53/53/17
f 60/54/18 59/55/18 55/56/18
f 58/57/19 57/58/19 59/59/19
f 54/60/20 53/61/20 57/62/20
f 55/63/21 59/59/21 57/64/21
f 58/65/22 64/66/22 61/67/22
f 60/68/23 63/69/23 64/70/23
f 56/71/24 62/72/24 63/73/24
f 54/74/25 61/75/25 62/76/25
f 61/67/26 64/66/26 65/77/26
f 64/70/27 63/69/27 65/78/27
f 63/73/28 62/72/28 65/79/28
f 62/76/29 61/75/29 65/80/29
f 54/74/17 56/51/17 53/53/17
f 56/71/18 60/54/18 55/56/18
f 60/68/19 58/57/19 59/59/19
f 58/65/20 54/60/20 57/62/20
f 53/81/21 55/63/21 57/64/21
f 54/60/22 58/65/22 61/67/22
f 58/57/23 60/68/23 64/70/23
f 60/54/24 56/71/24 63/73/24
f 56/51/25 54/74/25 62/76/25
o Hilt_Cube.001
v -0.075000 -0.500000 0.075000
v -0.100000 0.200000 0.100000
v -0.075000 -0.500000 -0.075000
v -0.100000 0.200000 -0.100000
v 0.075000 -0.500000 0.075000
v 0.100000 0.200000 0.100000
v 0.075000 -0.500000 -0.075000
v 0.100000 0.200000 -0.100000
v -0.300000 0.300000 0.100000
v -0.300000 0.300000 -0.100000
v 0.300000 0.300000 -0.100000
v 0.300000 0.300000 0.100000
v -0.180000 0.300000 -0.100000
v -0.110000 0.300000 -0.100000
v 0.110000 0.300000 -0.100000
v 0.180000 0.300000 -0.100000
v 0.180000 0.300000 0.100000
v 0.110000 0.300000 0.100000
v -0.110000 0.300000 0.100000
v -0.180000 0.300000 0.100000
v -0.055000 0.400000 -0.100000
v 0.055000 0.400000 -0.100000
v 0.055000 0.400000 0.100000
v -0.055000 0.400000 0.100000
v -0.300000 1.050000 0.100000
v -0.300000 1.050000 -0.100000
v -0.180000 1.250000 0.100000
v -0.180000 1.250000 -0.100000
v 0.180000 1.250000 -0.100000
v 0.300000 1.050000 -0.100000
v 0.300000 1.050000 0.100000
v 0.180000 1.250000 0.100000
v -0.075000 0.116667 0.075000
v -0.100000 0.116667 0.100000
v -0.100000 0.116667 -0.100000
v -0.075000 0.116667 -0.075000
v 0.100000 0.116667 -0.100000
v 0.075000 0.116667 -0.075000
v 0.100000 0.116667 0.100000
v 0.075000 0.116667 0.075000
vt 0.078125 0.601562
vt 0.078125 0.921875
vt 0.000000 0.921875
vt 0.750000 0.507812
vt 0.750000 0.828125
vt 0.664062 0.828125
vt 0.164062 0.601562
vt 0.835938 0.507812
vt 0.835938 0.828125
vt 0.500000 0.601562
vt 0.585938 0.601562
vt 0.585938 0.679688
vt 0.210938 0.554688
vt 0.117188 0.554688
vt 0.117188 0.500000
vt 1.000000 0.500000
vt 1.000000 1.000000
vt 0.888889 1.000000
vt 0.281250 0.593750
vt 0.398438 0.593750
vt 0.398438 0.703125
vt 0.453125 0.046875
vt 0.546875 0.046875
vt 0.554688 0.093750
vt 0.500000 0.703125
vt 0.390625 0.703125
vt 0.888889 0.500000
vt 0.888889 0.000000
vt 1.000000 0.000000
vt 0.351562 0.812500
vt 0.312500 0.812500
vt 0.312500 0.703125
vt 0.557520 0.782544
vt 0.500000 0.782544
vt 0.500000 0.677033
vt 0.351562 0.703125
vt 0.390625 0.812500
vt 0.640625 0.703125
vt 0.585938 0.703125
vt 0.224187 0.808922
vt 0.166667 0.808922
vt 0.166667 0.703410
vt 0.140625 0.453125
vt 0.195312 0.453125
vt 0.523438 0.148438
vt 0.476562 0.148438
vt 0.666667 0.504341
vt 0.666667 0.394737
vt 0.777778 0.394737
vt 0.601562 0.093750
vt 0.664062 0.093750
vt 0.664062 0.484375
vt 0.265625 0.500000
vt 0.265625 0.007812
vt 0.335938 0.117188
vt 0.777778 0.000000
vt 0.888889 0.394737
vt 0.888889 0.504341
vt 0.777778 0.504341
vt 0.062500 0.500000
vt 0.000000 0.500000
vt -0.000000 0.117188
vt 0.398438 0.093750
vt 0.398438 0.585938
vt 0.335938 0.484375
vt 0.210938 0.601562
vt 0.117188 0.601562
vt 0.281250 0.703125
vt 0.265625 0.687500
vt 0.265625 0.609375
vt 0.273438 0.703125
vt 0.179688 0.609375
vt 0.453125 -0.000000
vt 0.546875 0.000000
vt 0.164062 0.593750
vt 0.179688 0.687500
vt 0.226562 0.703125
vt 0.273438 0.812500
vt 0.164062 0.703125
vt 0.000000 0.601562
vt 0.664062 0.507812
vt 0.164062 0.921875
vt 0.500000 0.679688
vt 0.333333 0.501180
vt 0.218750 0.500000
vt 0.335938 0.093750
vt 0.445312 0.093750
vt 0.390625 0.601562
vt 0.557520 0.677033
vt 0.640625 0.601562
vt 0.224187 0.703410
vt 0.601562 0.585938
vt 0.335938 0.500000
vt 0.666667 0.000000
vt 0.062500 0.015625
vt 0.226562 0.812500
vn -1.000000 0.000000 0.000000
vn 0.000000 0.000000 -1.000000
vn 1.000000 0.000000 0.000000
vn 0.000000 0.000000 1.000000
vn 0.000000 -1.000000 0.000000
vn 0.447200 -0.894400 0.000000
vn -0.447200 -0.894400 0.000000
vn 0.000000 1.000000 0.000000
vn -0.876200 0.481900 0.000000
vn 0.876200 0.481900 0.000000
vn -0.857500 0.514500 0.000000
vn 0.857500 0.514500 0.000000
s off
f 101/82/30 68/83/30 66/84/30
f 103/85/31 72/86/31 68/87/31
f 105/83/32 70/82/32 72/88/32
f 98/89/33 66/90/33 70/86/33
f 68/91/34 72/92/34 70/93/34
f 67/94/33 71/95/33 83/96/33
f 78/97/32 93/98/32 92/99/32
f 73/100/35 76/101/35 77/102/35
f 73/103/31 69/104/31 79/105/31
f 67/91/36 74/106/36 75/107/36
f 82/108/30 97/109/30 94/110/30
f 81/111/37 80/112/37 83/113/37
f 84/114/38 89/115/38 86/116/38
f 79/117/37 78/107/37 85/118/37
f 87/119/37 86/120/37 89/92/37
f 80/121/39 87/122/39 88/123/39
f 83/96/33 88/124/33 89/125/33
f 79/105/31 86/126/31 87/127/31
f 93/128/40 91/129/40 90/130/40
f 78/131/31 75/132/31 91/133/31
f 85/134/33 92/135/33 90/136/33
f 74/137/30 90/130/30 91/129/30
f 95/138/41 94/139/41 97/140/41
f 82/141/33 77/142/33 96/143/33
f 76/109/32 95/138/32 96/130/32
f 81/144/31 94/145/31 95/146/31
f 67/94/33 99/147/33 104/148/33
f 99/149/34 98/150/34 105/151/34
f 71/152/32 104/113/32 102/112/32
f 104/100/34 105/151/34 103/153/34
f 73/103/31 102/154/31 100/155/31
f 102/156/34 103/153/34 101/157/34
f 69/158/30 100/152/30 99/159/30
f 100/160/34 101/157/34 98/150/34
f 98/161/30 101/82/30 66/84/30
f 101/162/31 103/85/31 68/87/31
f 103/163/32 105/83/32 72/88/32
f 105/85/33 98/89/33 70/86/33
f 66/164/34 68/91/34 70/93/34
f 85/134/33 74/165/33 67/94/33
f 67/94/33 84/166/33 85/134/33
f 71/95/33 82/141/33 83/96/33
f 82/141/33 71/95/33 77/142/33
f 83/96/33 84/166/33 67/94/33
f 85/108/32 78/97/32 92/99/32
f 71/149/35 73/100/35 77/102/35
f 81/144/31 76/167/31 73/103/31
f 73/103/31 80/168/31 81/144/31
f 69/104/31 78/131/31 79/105/31
f 78/131/31 69/104/31 75/132/31
f 79/105/31 80/168/31 73/103/31
f 69/169/36 67/91/36 75/107/36
f 81/97/30 82/108/30 94/110/30
f 82/117/37 81/111/37 83/113/37
f 79/170/38 84/114/38 86/116/38
f 84/111/37 79/117/37 85/118/37
f 88/171/37 87/119/37 89/92/37
f 83/172/39 80/121/39 88/123/39
f 84/166/33 83/96/33 89/125/33
f 80/168/31 79/105/31 87/127/31
f 92/140/40 93/128/40 90/130/40
f 93/173/31 78/131/31 91/133/31
f 74/174/33 85/134/33 90/136/33
f 75/175/30 74/137/30 91/129/30
f 96/130/41 95/138/41 97/140/41
f 97/176/33 82/141/33 96/143/33
f 77/137/32 76/109/32 96/130/32
f 76/167/31 81/144/31 95/146/31
f 71/95/33 67/94/33 104/148/33
f 104/100/34 99/149/34 105/151/34
f 73/159/32 71/152/32 102/112/32
f 102/156/34 104/100/34 103/153/34
f 69/104/31 73/103/31 100/155/31
f 100/160/34 102/156/34 101/157/34
f 67/177/30 69/158/30 99/159/30
f 99/149/34 100/160/34 98/150/34
